<svg width="175" height="158" viewBox="0 0 175 158" fill="none" xmlns="http://www.w3.org/2000/svg">
<g filter="url(#filter0_d_793_6)">
<ellipse cx="77.6278" cy="75.5061" rx="70.6278" ry="70.5061" fill="#E7E1E1"/>
<path d="M77.6279 6.5C115.809 6.50005 146.756 37.3974 146.756 75.5059C146.756 113.614 115.809 144.512 77.6279 144.512C39.4472 144.512 8.5 113.614 8.5 75.5059C8.50012 37.3974 39.4473 6.5 77.6279 6.5Z" stroke="#E31E24" stroke-width="3"/>
</g>
<g filter="url(#filter1_d_793_6)">
<path d="M85.8984 6.5C124.079 6.50005 155.026 37.3974 155.026 75.5059C155.026 113.614 124.079 144.512 85.8984 144.512C47.7177 144.512 16.7704 113.614 16.7704 75.5059C16.7706 37.3974 47.7178 6.5 85.8984 6.5Z" stroke="#FF5B60" stroke-width="3" shape-rendering="crispEdges"/>
</g>
<g filter="url(#filter2_d_793_6)">
<path d="M97.3113 8.5C135.492 8.50005 166.439 39.3974 166.439 77.5059C166.439 115.614 135.492 146.512 97.3113 146.512C59.1306 146.512 28.1833 115.614 28.1833 77.5059C28.1835 39.3974 59.1307 8.5 97.3113 8.5Z" stroke="#66070A" stroke-width="3" shape-rendering="crispEdges"/>
</g>
<defs>
<filter id="filter0_d_793_6" x="0" y="0" width="155.256" height="155.012" filterUnits="userSpaceOnUse" color-interpolation-filters="sRGB">
<feFlood flood-opacity="0" result="BackgroundImageFix"/>
<feColorMatrix in="SourceAlpha" type="matrix" values="0 0 0 0 0 0 0 0 0 0 0 0 0 0 0 0 0 0 127 0" result="hardAlpha"/>
<feOffset dy="2"/>
<feGaussianBlur stdDeviation="3.5"/>
<feComposite in2="hardAlpha" operator="out"/>
<feColorMatrix type="matrix" values="0 0 0 0 0.890196 0 0 0 0 0.117647 0 0 0 0 0.141176 0 0 0 1 0"/>
<feBlend mode="normal" in2="BackgroundImageFix" result="effect1_dropShadow_793_6"/>
<feBlend mode="normal" in="SourceGraphic" in2="effect1_dropShadow_793_6" result="shape"/>
</filter>
<filter id="filter1_d_793_6" x="8.27045" y="0" width="155.256" height="155.012" filterUnits="userSpaceOnUse" color-interpolation-filters="sRGB">
<feFlood flood-opacity="0" result="BackgroundImageFix"/>
<feColorMatrix in="SourceAlpha" type="matrix" values="0 0 0 0 0 0 0 0 0 0 0 0 0 0 0 0 0 0 127 0" result="hardAlpha"/>
<feOffset dy="2"/>
<feGaussianBlur stdDeviation="3.5"/>
<feComposite in2="hardAlpha" operator="out"/>
<feColorMatrix type="matrix" values="0 0 0 0 1 0 0 0 0 0.356863 0 0 0 0 0.376471 0 0 0 1 0"/>
<feBlend mode="normal" in2="BackgroundImageFix" result="effect1_dropShadow_793_6"/>
<feBlend mode="normal" in="SourceGraphic" in2="effect1_dropShadow_793_6" result="shape"/>
</filter>
<filter id="filter2_d_793_6" x="19.6833" y="2" width="155.256" height="155.012" filterUnits="userSpaceOnUse" color-interpolation-filters="sRGB">
<feFlood flood-opacity="0" result="BackgroundImageFix"/>
<feColorMatrix in="SourceAlpha" type="matrix" values="0 0 0 0 0 0 0 0 0 0 0 0 0 0 0 0 0 0 127 0" result="hardAlpha"/>
<feOffset dy="2"/>
<feGaussianBlur stdDeviation="3.5"/>
<feComposite in2="hardAlpha" operator="out"/>
<feColorMatrix type="matrix" values="0 0 0 0 0.4 0 0 0 0 0.027451 0 0 0 0 0.0392157 0 0 0 1 0"/>
<feBlend mode="normal" in2="BackgroundImageFix" result="effect1_dropShadow_793_6"/>
<feBlend mode="normal" in="SourceGraphic" in2="effect1_dropShadow_793_6" result="shape"/>
</filter>
</defs>
</svg>
